<?xml version="1.0" encoding="utf-8"?>
<svg version="1.1" id="Layer_1" xmlns="http://www.w3.org/2000/svg" xmlns:xlink="http://www.w3.org/1999/xlink" x="0px" y="0px"
	 viewBox="0 0 380.3 114.3" style="enable-background:new 0 0 380.3 114.3;" xml:space="preserve">
<style type="text/css">
	.st0{fill:#F31F4C;}
</style>
<g id="Layer_x0020_1">
	<g id="_1810319142464">
		<path class="st0" d="M356.3,71.8c-17.9,0-16,1.3-16-23.9c0-7.1,3.9-7.9,8-10.6c12.2,3.3,10.6,5.5,10.6,21.3
			C359,61.9,357.3,69.7,356.3,71.8z M273.9,55.8c0-13.2,1.4-15.8,13.3-18.6C312.7,61.4,273.9,91.5,273.9,55.8z M252.6,55.8
			c0,44.9,60.2,46.5,63.8,2.7l1.5,3.9c0.8,2.4,1,3.8,1.8,6.2c11.3,34.8,60.5,24.6,60.5-7.3c0-23.4-2.4-39.9-34.6-39.9
			c-13.2,0-21.5,9.1-25.4,19.8l-3.9,12C312.8,9,252.6,9.8,252.6,55.8z"/>
		<path class="st0" d="M226,53.2c-8.5-6.2-4.7-10.9-9.4-22.5c-3.7-9.3-1.8-9.4-25.2-9.4c1.4,17.3,21.3,50.6,21.3,74.4
			c-14.5,0.3-13.3-0.1-13.3,18.6c32.5,0,28.9-8.1,40.9-44.2c4.7-14.1,16.5-43.9,17.6-56.9h-21.3C233.6,26.6,227.3,38.3,226,53.2z"/>
		<path class="st0" d="M31.9,61.2c-0.2-9.2-3.7-22.5-6.7-30.5c-4.8-13-9.2-12-25.2-12c0.3,4.2,14.3,69.1,29.3,69.1
			c22.1,0,15.3,3.3,30.2-41.6L74.5,0h-24L32.8,59.4C32.6,59.8,32.3,60.6,31.9,61.2z"/>
		<path class="st0" d="M98.4,37.2c7,4.6,5.5,1.3,8,10.6H87.8C90.2,38.7,89.2,39.7,98.4,37.2z M98.4,90.4c11.4,0,19.8-6.1,26.6-10.6
			c-3.1-6-4.4-8-8-13.3c-13.1,6.9-21.3,9.1-29.3-2.7c9.4,0,39.9,3.6,39.9-5.3c0-29.5-13-37.2-34.6-37.2
			C57.1,21.3,52.9,90.4,98.4,90.4z"/>
		<path class="st0" d="M133,23.9v63.8h21.3V39.9c20.2-4.7,16.6-0.4,15.9,24c-0.8,27.1-1.9,23.9,24,23.9c-8-34.4,8.6-66.5-23.9-66.5
			c-14.2,0-4.6,5.6-16.8,2.9C152.9,24.1,149.6,17.5,133,23.9z"/>
	</g>
</g>
</svg>
